<svg width="25" height="25" viewBox="0 0 25 25" fill="none" xmlns="http://www.w3.org/2000/svg">
<g clip-path="url(#clip0_0_174)">
<mask id="mask0_0_174" style="mask-type:alpha" maskUnits="userSpaceOnUse" x="0" y="0" width="25" height="25">
<path d="M12.5 25C19.4036 25 25 19.4036 25 12.5C25 5.59644 19.4036 0 12.5 0C5.59644 0 0 5.59644 0 12.5C0 19.4036 5.59644 25 12.5 25Z" fill="#FFAF27"/>
</mask>
<g mask="url(#mask0_0_174)">
<rect x="-2.69397" y="0.0808411" width="33.0011" height="26.9397" fill="black"/>
</g>
<path d="M16.7346 19.5411C16.5739 17.2401 16.4161 14.9785 16.2582 12.7141C16.174 12.681 16.1422 12.7475 16.1062 12.8053C15.8358 13.24 15.5679 13.676 15.2947 14.1088C15.1027 14.4129 14.9189 14.7241 14.7031 15.011C14.5127 15.2639 14.292 15.4961 14.0692 15.7221C13.6723 16.1241 12.9922 16.1494 12.5834 15.7048C12.4054 15.5113 12.2223 15.3221 12.0506 15.1234C11.7519 14.7777 11.4607 14.4256 11.1649 14.0776C11.0942 13.9945 11.0175 13.9168 10.9285 13.8205C10.7115 13.8667 10.4976 13.912 10.3089 13.9521C10.1904 14.0795 10.2174 14.2098 10.2185 14.331C10.2241 14.9814 10.2345 15.6318 10.2428 16.2822C10.2455 16.4899 10.2505 16.6976 10.2468 16.905C10.2378 17.4157 9.89339 17.787 9.3808 17.8448C8.83994 17.9057 8.41319 17.5853 8.3209 17.0224C8.27642 16.751 8.26582 16.4726 8.25813 16.197C8.23983 15.5607 8.22882 14.9241 8.22341 14.2876C8.22175 14.1018 8.18558 13.9519 8.05754 13.7985C7.74491 13.4237 7.75884 12.9849 8.0725 12.5881C8.15482 12.484 8.20304 12.3844 8.20138 12.2518C8.18974 11.2416 8.18184 10.2313 8.17062 9.22112C8.16999 9.16749 8.15024 9.11428 8.13569 9.04298C8.00245 9.00827 7.86693 8.98124 7.73701 8.93738C7.43083 8.83366 7.21195 8.63952 7.11612 8.32003C6.99972 7.93195 7.12236 7.60581 7.47219 7.39649C7.72724 7.24392 8.01264 7.17449 8.30074 7.1456C9.23841 7.05185 10.178 6.99261 11.1173 7.13209C11.7671 7.22854 12.388 7.41083 12.9409 7.77813C13.4711 8.13025 13.886 8.58048 14.1284 9.18059C14.3213 9.65846 14.3585 10.1461 14.2604 10.6469C14.1143 11.3923 13.7443 12.0154 13.1911 12.5276C12.9685 12.7338 12.7189 12.9109 12.4796 13.0986C12.3938 13.166 12.3023 13.2258 12.1957 13.3015C12.3884 13.5985 12.8723 14.0217 13.1153 14.2383C13.2831 14.1662 13.3288 14.0107 13.4026 13.8845C13.9892 12.8812 14.571 11.8749 15.1542 10.8697C15.6057 10.0917 16.0566 9.31362 16.5093 8.53642C16.5719 8.42895 16.7735 8.03438 16.7735 8.03438C17.0269 7.71635 17.2796 7.5693 17.6671 7.68716C17.9348 7.76864 18.0204 7.89911 18.1084 8.16455C18.1597 8.3192 18.1842 8.48798 18.1905 8.65157C18.2094 9.13548 18.2108 9.62001 18.2237 10.1041C18.251 11.1276 18.2651 12.1516 18.3137 13.1741C18.3761 14.4865 18.4503 15.799 18.5519 17.1089C18.6064 17.8111 18.7295 18.508 18.8215 19.2073C18.8432 19.3717 18.8683 19.5359 18.8872 19.7008C18.9209 19.9945 18.8272 20.2485 18.6251 20.4591C18.501 20.5883 18.3721 20.7164 18.23 20.8247C16.9042 21.8357 15.4228 22.4793 13.7617 22.6811C11.1524 22.9983 8.81998 22.3155 6.78084 20.6742C4.87743 19.142 3.71069 17.142 3.16193 14.7717C2.90668 13.6698 2.82416 12.548 2.92892 11.4293C3.1717 8.83553 4.15615 6.56192 6.01507 4.70466C7.29738 3.42359 8.81915 2.55472 10.5945 2.15313C12.4152 1.74135 14.2009 1.88624 15.9366 2.55639C18.5152 3.55185 20.3824 5.30871 21.4911 7.84797C21.8755 8.72827 22.0914 9.65638 22.2064 10.6103C22.3031 11.4105 22.3153 12.2121 22.2634 13.0138C22.179 14.3167 21.8196 15.5431 21.1883 16.6878C21.0673 16.9073 20.9278 17.1133 20.7262 17.2686C20.5121 17.4334 20.2774 17.54 19.9981 17.5165C19.5952 17.4829 19.3699 17.1865 19.4674 16.7977C19.5006 16.6653 19.5599 16.5363 19.6262 16.4161C20.1533 15.4608 20.4909 14.4427 20.651 13.3645C20.7738 12.5382 20.7744 11.709 20.6882 10.8807C20.5518 9.57178 20.1934 8.33042 19.5123 7.19403C19.0363 6.39999 18.4247 5.72943 17.6671 5.19438C17.4526 5.04285 17.2447 4.88093 17.0231 4.74062C16.5631 4.4494 16.0476 4.27999 15.535 4.11557C14.5786 3.80877 13.5973 3.67199 12.5892 3.72333C11.1905 3.79442 9.8963 4.18687 8.71459 4.94017C6.83405 6.13912 5.6723 7.84485 5.15742 10.0027C4.92836 10.963 4.8078 11.9391 4.84729 12.9246C4.95081 15.508 5.92153 17.6847 7.98478 19.2983C9.45002 20.4443 11.1422 20.9363 12.9962 20.8182C14.2448 20.7386 15.4097 20.3564 16.4837 19.7089C16.5656 19.6594 16.6431 19.6024 16.7342 19.5411H16.7346ZM10.2547 11.915C10.9855 11.8238 11.7841 11.3033 12.1221 10.6882C12.1946 10.5564 12.258 10.4145 12.2953 10.2694C12.3952 9.87963 12.2921 9.64183 11.9523 9.42607C11.9176 9.40404 11.8806 9.38491 11.8438 9.36621C11.3669 9.12446 10.8502 9.0436 10.3264 8.99579C10.2199 8.98602 10.1462 9.06002 10.1426 9.17269C10.1385 9.3105 10.1453 9.44852 10.1466 9.58633C10.1532 10.2623 10.1588 10.9383 10.1676 11.6145C10.169 11.7209 10.1403 11.84 10.2549 11.915H10.2547Z" fill="white"/>
</g>
<defs>
<clipPath id="clip0_0_174">
<rect width="25" height="25" fill="white"/>
</clipPath>
</defs>
</svg>
