<svg width="118" height="34" viewBox="0 0 118 34" fill="none" xmlns="http://www.w3.org/2000/svg">
<path d="M5.33937 34H0.539368V0.399998H7.35537C9.27537 0.399998 10.6994 0.815998 11.6274 1.648C12.5554 2.48 13.0194 3.616 13.0194 5.056L13.0674 20.224C13.0354 21.184 12.8434 21.952 12.4914 22.528C12.1394 23.072 11.6914 23.472 11.1474 23.728C10.7954 23.92 10.3954 24.064 9.94737 24.16C9.53137 24.224 9.14737 24.24 8.79537 24.208C8.12337 24.144 7.59537 24 7.21137 23.776C6.85937 23.552 6.58737 23.328 6.39537 23.104C6.20337 22.848 6.05937 22.624 5.96337 22.432C5.86737 22.208 5.75537 22.096 5.62737 22.096H5.33937V34ZM5.33937 4.864V21.184C6.01137 21.408 6.53937 21.504 6.92337 21.472C7.33937 21.408 7.64337 21.28 7.83537 21.088C8.05937 20.864 8.20337 20.624 8.26737 20.368C8.33137 20.08 8.36337 19.824 8.36337 19.6V7.168C8.36337 6.08 8.13937 5.328 7.69137 4.912C7.27537 4.496 6.49137 4.48 5.33937 4.864ZM9.46737 21.376L13.0194 34H7.73937L5.67537 22.096L9.46737 21.376Z" fill="#010101"/>
<path d="M17.8812 0.399998H22.6812V34H17.8812V0.399998ZM27.8652 5.296L18.7452 3.568L18.3612 0.399998H29.4012L27.8652 5.296ZM26.9052 18.784H19.1772V13.888H26.9052V18.784ZM18.3612 34L18.7452 30.832L27.8652 29.104L29.4012 34H18.3612Z" fill="#010101"/>
<path d="M45.3024 34H40.5024L39.3024 5.824H38.9184L37.5744 34H32.7744L35.1264 0.399998H43.1904L45.3024 34ZM42.8544 29.584H35.7984V24.688H42.8544V29.584Z" fill="#010101"/>
<path d="M54.4119 0.399998V34H49.6119V0.399998H54.4119ZM49.6119 34V30.832L59.1159 29.104L60.6519 34H49.6119Z" fill="#010101"/>
<path d="M79.4566 34V5.536H78.8326L76.8166 33.952L70.8646 34L68.9446 5.536H68.3206V34H64.0006L64.4806 0.399998H72.6406L73.7446 28.432H74.1286L75.6166 0.399998H83.2966L83.7766 34H79.4566Z" fill="#010101"/>
<path d="M100.609 34H95.8092L94.6092 5.824H94.2252L92.8812 34H88.0812L90.4332 0.399998H98.4972L100.609 34ZM98.1612 29.584H91.1052V24.688H98.1612V29.584Z" fill="#010101"/>
<path d="M104.919 34V0.399998H109.767L112.743 24.304H113.079L112.647 0.399998H117.447V34H112.647V33.952L109.575 10H109.239L109.719 34H104.919Z" fill="#010101"/>
</svg>
