<svg width="25" height="26" viewBox="0 0 25 26" fill="none" xmlns="http://www.w3.org/2000/svg">
<path d="M17.8396 21.987C17.6326 19.1153 17.4294 16.2929 17.2259 13.4669C17.1175 13.4257 17.0765 13.5087 17.0302 13.5808C16.6819 14.1232 16.3368 14.6675 15.9849 15.2076C15.7375 15.5871 15.5009 15.9754 15.223 16.3334C14.9777 16.6491 14.6934 16.9389 14.4063 17.2209C13.8952 17.7225 13.0192 17.7542 12.4925 17.1993C12.2633 16.9578 12.0275 16.7217 11.8063 16.4738C11.4216 16.0424 11.0465 15.6029 10.6655 15.1687C10.5744 15.0649 10.4756 14.9679 10.361 14.8478C10.0815 14.9054 9.80602 14.9619 9.56291 15.012C9.41029 15.171 9.4451 15.3336 9.44644 15.4849C9.45367 16.2966 9.46705 17.1083 9.47776 17.92C9.48125 18.1791 9.48767 18.4383 9.48285 18.6972C9.47134 19.3345 9.02769 19.7978 8.36744 19.8699C7.67078 19.9459 7.12111 19.5462 7.00223 18.8437C6.94493 18.5049 6.93128 18.1576 6.92137 17.8136C6.89781 17.0196 6.88362 16.225 6.87666 15.4307C6.87452 15.1988 6.82793 15.0117 6.663 14.8203C6.26032 14.3526 6.27826 13.8049 6.68228 13.3097C6.78831 13.1798 6.85042 13.0555 6.84828 12.89C6.83329 11.6293 6.82311 10.3685 6.80865 9.10782C6.80785 9.04089 6.78242 8.97448 6.76367 8.88551C6.59205 8.84218 6.41748 8.80846 6.25015 8.75373C5.85576 8.62428 5.57383 8.38199 5.4504 7.98328C5.30047 7.49896 5.45844 7.09195 5.90904 6.83072C6.23756 6.64032 6.60517 6.55367 6.97626 6.51762C8.18404 6.40062 9.39423 6.32669 10.6042 6.50075C11.4411 6.62112 12.2409 6.84862 12.953 7.307C13.6361 7.74644 14.1705 8.30832 14.4826 9.05724C14.7311 9.65362 14.779 10.2622 14.6527 10.8871C14.4644 11.8174 13.9879 12.5951 13.2754 13.2342C12.9887 13.4916 12.6671 13.7126 12.3589 13.9468C12.2483 14.0309 12.1305 14.1056 11.9932 14.2C12.2414 14.5707 12.8647 15.0989 13.1777 15.3692C13.3938 15.2792 13.4527 15.0851 13.5477 14.9277C14.3033 13.6755 15.0527 12.4197 15.804 11.1652C16.3855 10.1942 16.9663 9.22326 17.5494 8.25332C17.63 8.11921 17.8897 7.6268 17.8897 7.6268C18.2161 7.2299 18.5416 7.04638 19.0407 7.19347C19.3855 7.29516 19.4958 7.45798 19.6091 7.78924C19.6752 7.98224 19.7068 8.19288 19.7148 8.39704C19.7392 9.00094 19.7411 9.60563 19.7577 10.2098C19.7928 11.4871 19.811 12.765 19.8736 14.041C19.9539 15.6789 20.0495 17.3168 20.1804 18.9516C20.2506 19.8279 20.4091 20.6977 20.5277 21.5704C20.5555 21.7756 20.5879 21.9805 20.6123 22.1862C20.6557 22.5528 20.5349 22.8698 20.2747 23.1325C20.1148 23.2939 19.9488 23.4537 19.7657 23.5888C18.0581 24.8506 16.1499 25.6537 14.0104 25.9056C10.6494 26.3015 7.64508 25.4493 5.01854 23.401C2.56683 21.4889 1.064 18.9929 0.357167 16.0348C0.0283811 14.6597 -0.0779121 13.2597 0.0570294 11.8635C0.369751 8.62662 1.63777 5.78919 4.03218 3.47137C5.68387 1.87263 7.64401 0.788298 9.93078 0.287119C12.2759 -0.226771 14.5761 -0.0459628 16.8117 0.790373C20.1331 2.03269 22.5382 4.22521 23.9663 7.39416C24.4614 8.49276 24.7395 9.65102 24.8876 10.8415C25.0121 11.8402 25.0279 12.8405 24.961 13.841C24.8523 15.467 24.3893 16.9975 23.5762 18.4261C23.4204 18.7 23.2407 18.9571 22.981 19.1509C22.7052 19.3566 22.403 19.4896 22.0431 19.4603C21.5242 19.4183 21.234 19.0484 21.3596 18.5633C21.4024 18.3981 21.4787 18.237 21.5641 18.087C22.2431 16.8948 22.6779 15.6242 22.8841 14.2786C23.0423 13.2475 23.0431 12.2127 22.932 11.1789C22.7564 9.54544 22.2948 7.99625 21.4174 6.57806C20.8043 5.58711 20.0166 4.75026 19.0407 4.08254C18.7644 3.89343 18.4966 3.69135 18.2112 3.51625C17.6187 3.15282 16.9547 2.9414 16.2945 2.7362C15.0626 2.35332 13.7986 2.18262 12.5 2.2467C10.6984 2.33542 9.03144 2.82518 7.50933 3.76528C5.08708 5.26156 3.59068 7.39027 2.92748 10.0832C2.63243 11.2817 2.47714 12.4999 2.52801 13.7297C2.66135 16.9537 3.9117 19.6702 6.56929 21.684C8.4566 23.1141 10.6363 23.7281 13.0243 23.5808C14.6326 23.4814 16.133 23.0044 17.5164 22.1963C17.6219 22.1346 17.7218 22.0635 17.839 21.987H17.8396ZM9.49303 12.4698C10.4344 12.3559 11.4631 11.7063 11.8984 10.9387C11.9919 10.7743 12.0735 10.5971 12.1214 10.416C12.2502 9.92963 12.1174 9.63286 11.6797 9.3636C11.635 9.3361 11.5873 9.31223 11.5399 9.28889C10.9257 8.9872 10.2601 8.88628 9.5854 8.82662C9.44831 8.81443 9.35327 8.90678 9.34871 9.04738C9.34336 9.21937 9.35219 9.39161 9.3538 9.5636C9.36237 10.4072 9.3696 11.2508 9.38084 12.0947C9.38272 12.2275 9.34577 12.3761 9.49329 12.4698H9.49303Z" fill="white" fill-opacity="0.25"/>
</svg>
