<svg width="39" height="39" viewBox="0 0 39 39" fill="none" xmlns="http://www.w3.org/2000/svg">
<path d="M25.7403 18.0931V17.55C25.7403 15.1047 22.0519 13.26 17.1603 13.26C12.2687 13.26 8.58032 15.1047 8.58032 17.55V21.45C8.58032 23.4868 11.1397 25.1053 14.8203 25.5899V26.13C14.8203 28.5753 18.5087 30.42 23.4003 30.42C28.2919 30.42 31.9803 28.5753 31.9803 26.13V22.23C31.9803 20.2118 29.5019 18.5913 25.7403 18.0931ZM30.4203 22.23C30.4203 23.519 27.4183 24.96 23.4003 24.96C23.0366 24.96 22.6759 24.9473 22.32 24.9239C24.4231 24.1576 25.7403 22.9125 25.7403 21.45V19.6697C28.6526 20.1035 30.4203 21.2813 30.4203 22.23ZM14.8203 24.0094V21.6899C15.5962 21.7909 16.3779 21.841 17.1603 21.84C17.9428 21.841 18.7244 21.7909 19.5003 21.6899V24.0094C18.7256 24.1238 17.9435 24.1809 17.1603 24.18C16.3772 24.1809 15.5951 24.1238 14.8203 24.0094ZM24.1803 20.0782V21.45C24.1803 22.268 22.9703 23.1465 21.0603 23.6798V21.4013C22.319 21.0961 23.3847 20.6417 24.1803 20.0782ZM17.1603 14.82C21.1783 14.82 24.1803 16.2611 24.1803 17.55C24.1803 18.839 21.1783 20.28 17.1603 20.28C13.1423 20.28 10.1403 18.839 10.1403 17.55C10.1403 16.2611 13.1423 14.82 17.1603 14.82ZM10.1403 21.45V20.0782C10.9359 20.6417 12.0016 21.0961 13.2603 21.4013V23.6798C11.3503 23.1465 10.1403 22.268 10.1403 21.45ZM16.3803 26.13V25.7234C16.6367 25.7332 16.8961 25.74 17.1603 25.74C17.5386 25.74 17.9081 25.7273 18.2708 25.7059C18.6738 25.8501 19.0842 25.9725 19.5003 26.0725V28.3598C17.5903 27.8265 16.3803 26.948 16.3803 26.13ZM21.0603 28.6894V26.364C21.836 26.4683 22.6177 26.5204 23.4003 26.52C24.1828 26.521 24.9644 26.4709 25.7403 26.3699V28.6894C24.1886 28.9168 22.612 28.9168 21.0603 28.6894ZM27.3003 28.3598V26.0813C28.559 25.7761 29.6247 25.3217 30.4203 24.7582V26.13C30.4203 26.948 29.2103 27.8265 27.3003 28.3598Z" fill="#FFAF27"/>
</svg>
