<svg width="47" height="47" viewBox="0 0 47 47" fill="none" xmlns="http://www.w3.org/2000/svg">
<circle cx="23.5" cy="23.5" r="23.5" fill="#FFAF27"/>
<g clip-path="url(#clip0_6_121)">
<path d="M31.2602 37.0381C30.9581 32.7121 30.6615 28.4604 30.3645 24.2032C30.2062 24.141 30.1464 24.2661 30.0788 24.3747C29.5704 25.1918 29.0667 26.0117 28.5532 26.8253C28.1921 27.397 27.8467 27.982 27.441 28.5213C27.0831 28.9969 26.6681 29.4334 26.2492 29.8582C25.5031 30.614 24.2245 30.6616 23.4558 29.8258C23.1213 29.4619 22.777 29.1063 22.4543 28.7327C21.8927 28.0829 21.3452 27.4209 20.7891 26.7667C20.6563 26.6104 20.5121 26.4642 20.3448 26.2833C19.9368 26.3701 19.5347 26.4552 19.1799 26.5307C18.9571 26.7702 19.0079 27.0152 19.0099 27.2431C19.0204 28.4658 19.04 29.6886 19.0556 30.9113C19.0607 31.3017 19.0701 31.6921 19.063 32.0821C19.0462 33.0423 18.3987 33.7402 17.435 33.8489C16.4182 33.9634 15.6159 33.3612 15.4424 32.3029C15.3588 31.7926 15.3389 31.2693 15.3244 30.7511C15.29 29.5549 15.2693 28.358 15.2592 27.1614C15.256 26.812 15.188 26.5303 14.9473 26.2419C14.3596 25.5373 14.3857 24.7123 14.9754 23.9663C15.1302 23.7706 15.2209 23.5834 15.2177 23.3341C15.1958 21.4348 15.181 19.5356 15.1599 17.6364C15.1587 17.5356 15.1216 17.4356 15.0942 17.3015C14.8437 17.2363 14.589 17.1855 14.3447 17.103C13.7691 16.908 13.3576 16.543 13.1774 15.9424C12.9586 15.2128 13.1892 14.5997 13.8469 14.2061C14.3264 13.9193 14.8629 13.7888 15.4045 13.7345C17.1673 13.5582 18.9337 13.4468 20.6996 13.7091C21.9212 13.8904 23.0885 14.2331 24.128 14.9236C25.1249 15.5856 25.9049 16.432 26.3605 17.5602C26.7232 18.4586 26.7931 19.3754 26.6087 20.3168C26.334 21.7182 25.6384 22.8897 24.5985 23.8526C24.18 24.2403 23.7106 24.5732 23.2608 24.9261C23.0994 25.0527 22.9275 25.1653 22.727 25.3075C23.0893 25.8659 23.9991 26.6616 24.4559 27.0688C24.7713 26.9332 24.8572 26.6409 24.996 26.4037C26.0988 24.5173 27.1926 22.6256 28.2891 20.7357C29.1379 19.273 29.9855 17.8103 30.8366 16.3492C30.9542 16.1472 31.3334 15.4054 31.3334 15.4054C31.8097 14.8075 32.2848 14.531 33.0132 14.7526C33.5166 14.9058 33.6776 15.1511 33.8429 15.6501C33.9394 15.9408 33.9855 16.2581 33.9972 16.5657C34.0328 17.4754 34.0355 18.3863 34.0597 19.2965C34.1109 21.2207 34.1375 23.1457 34.229 25.068C34.3462 27.5354 34.4857 30.0028 34.6768 32.4655C34.7792 33.7856 35.0105 35.0959 35.1836 36.4105C35.2243 36.7196 35.2716 37.0283 35.3071 37.3382C35.3704 37.8904 35.1942 38.3679 34.8143 38.7638C34.581 39.0068 34.3388 39.2475 34.0715 39.4511C31.5791 41.3519 28.7939 42.5618 25.6712 42.9412C20.7657 43.5376 16.3807 42.2538 12.5471 39.1682C8.96871 36.2878 6.77524 32.5276 5.74357 28.0715C5.26369 26 5.10855 23.8909 5.3055 21.7877C5.76194 16.9115 7.61269 12.6371 11.1075 9.14549C13.5182 6.73709 16.3791 5.10362 19.7168 4.34862C23.1397 3.57448 26.4969 3.84686 29.76 5.10674C34.6076 6.9782 38.118 10.2811 40.2025 15.0549C40.925 16.7099 41.3311 18.4547 41.5472 20.248C41.7289 21.7526 41.7519 23.2594 41.6542 24.7667C41.4956 27.2161 40.8199 29.5217 39.6331 31.6738C39.4057 32.0864 39.1434 32.4737 38.7644 32.7656C38.3619 33.0755 37.9207 33.276 37.3955 33.2318C36.6381 33.1685 36.2145 32.6113 36.3978 31.8805C36.4603 31.6316 36.5717 31.3889 36.6964 31.163C37.6874 29.367 38.322 27.4529 38.6229 25.4259C38.8539 23.8726 38.855 22.3137 38.6929 20.7564C38.4365 18.2957 37.7628 15.9619 36.4822 13.8255C35.5873 12.3327 34.4376 11.0721 33.0132 10.0662C32.6099 9.78129 32.2192 9.47687 31.8026 9.21309C30.9378 8.66561 29.9686 8.34712 29.005 8.03801C27.207 7.46121 25.3621 7.20408 23.4668 7.3006C20.8372 7.43425 18.4042 8.17205 16.1826 9.58825C12.6472 11.8423 10.4631 15.0491 9.49509 19.1058C9.06445 20.9112 8.8378 22.7463 8.91205 24.599C9.10666 29.4557 10.9316 33.548 14.8105 36.5816C17.5652 38.736 20.7465 39.661 24.2319 39.439C26.5794 39.2894 28.7693 38.5707 30.7885 37.3534C30.9425 37.2604 31.0882 37.1533 31.2594 37.0381H31.2602ZM19.0779 22.701C20.4519 22.5294 21.9533 21.5509 22.5887 20.3946C22.7251 20.1468 22.8443 19.8799 22.9142 19.6072C23.1022 18.8744 22.9083 18.4274 22.2694 18.0217C22.2042 17.9803 22.1346 17.9444 22.0654 17.9092C21.169 17.4547 20.1975 17.3027 19.2127 17.2128C19.0126 17.1945 18.8739 17.3336 18.8673 17.5454C18.8594 17.8045 18.8723 18.0639 18.8747 18.323C18.8872 19.5939 18.8977 20.8647 18.9141 22.1359C18.9169 22.336 18.863 22.5599 19.0783 22.701H19.0779Z" fill="#010101"/>
</g>
<defs>
<clipPath id="clip0_6_121">
<rect width="36.4894" height="39.1667" fill="white" transform="translate(5.22221 3.91667)"/>
</clipPath>
</defs>
</svg>
