<svg width="22" height="22" viewBox="0 0 22 22" fill="none" xmlns="http://www.w3.org/2000/svg">
<g clip-path="url(#clip0_180_31)">
<circle cx="11" cy="11" r="10.5" fill="white" stroke="black"/>
<path d="M9.92 14.52C9.856 14.328 9.824 14.12 9.824 13.832C9.824 11.384 11.744 11.16 11.744 8.376C11.744 7.576 11.424 7.272 10.864 7.272C10.304 7.272 9.984 7.576 9.984 8.376V9.592H8.32V8.488C8.32 6.696 9.2 5.672 10.912 5.672C12.624 5.672 13.504 6.696 13.504 8.488C13.504 11.4 11.424 11.848 11.424 13.896C11.424 14.104 11.44 14.312 11.488 14.52H9.92ZM11.536 15.304V17H9.84V15.304H11.536Z" fill="#010101"/>
</g>
<defs>
<clipPath id="clip0_180_31">
<rect width="22" height="22" fill="white"/>
</clipPath>
</defs>
</svg>
