<svg width="32" height="32" viewBox="0 0 32 32" fill="none" xmlns="http://www.w3.org/2000/svg">
<g opacity="0.25">
<path fill-rule="evenodd" clip-rule="evenodd" d="M7.28942 5.85599C7.47651 6.04366 7.58146 6.29793 7.58121 6.56293C7.58096 6.82793 7.47554 7.082 7.28809 7.26932C6.13828 8.41367 5.22633 9.77427 4.60481 11.2727C3.98328 12.7711 3.66447 14.3778 3.66676 16C3.66448 17.6408 3.99069 19.2654 4.62614 20.7781C5.26159 22.2908 6.19344 23.6611 7.36676 24.808C7.46271 24.8994 7.53952 25.009 7.59275 25.1303C7.64598 25.2517 7.67455 25.3824 7.67681 25.5149C7.67907 25.6475 7.65497 25.7791 7.60591 25.9022C7.55685 26.0253 7.48381 26.1374 7.39103 26.2321C7.29825 26.3267 7.18759 26.4019 7.06548 26.4534C6.94337 26.5049 6.81224 26.5316 6.67972 26.532C6.54719 26.5323 6.41592 26.5064 6.29352 26.4556C6.17113 26.4047 6.06005 26.3301 5.96676 26.236C4.60351 24.9029 3.52077 23.3105 2.78229 21.5526C2.04381 19.7946 1.66452 17.9067 1.66676 16C1.66676 12.0373 3.27609 8.44799 5.87476 5.85465C6.06244 5.66756 6.3167 5.56262 6.5817 5.56287C6.8467 5.56312 7.1021 5.66854 7.28942 5.85599ZM24.8214 5.95199C25.0109 5.76665 25.2661 5.66409 25.5311 5.66684C25.7961 5.66959 26.0492 5.77743 26.2348 5.96665C28.8652 8.64334 30.3373 12.2472 30.3334 16C30.3334 19.952 28.7334 23.5333 26.1454 26.1253C25.958 26.3131 25.7037 26.4187 25.4384 26.419C25.1731 26.4192 24.9185 26.3141 24.7308 26.1267C24.543 25.9392 24.4374 25.6849 24.4371 25.4196C24.4369 25.1543 24.542 24.8998 24.7294 24.712C25.8739 23.5684 26.7813 22.2102 27.3998 20.7152C28.0182 19.2202 28.3355 17.6179 28.3334 16C28.3378 12.7709 27.0715 9.66974 24.8081 7.36665C24.6226 7.17739 24.5198 6.92223 24.5223 6.65723C24.5248 6.39222 24.6324 6.13772 24.8214 5.95199ZM11.0774 9.98399C11.2586 10.1776 11.3555 10.4353 11.3468 10.7003C11.338 10.9654 11.2243 11.2161 11.0308 11.3973C9.76542 12.5813 8.99876 14.2 8.99876 15.976C8.99876 17.7733 9.78409 19.4093 11.0761 20.5973C11.2713 20.777 11.3871 21.0268 11.3981 21.2918C11.4091 21.5569 11.3144 21.8155 11.1348 22.0107C10.9551 22.2059 10.7053 22.3217 10.4402 22.3327C10.1752 22.3437 9.91662 22.249 9.72142 22.0693C8.05209 20.5347 6.99876 18.376 6.99876 15.976C6.99876 13.604 8.02676 11.4693 9.66542 9.93599C9.85921 9.75494 10.117 9.65829 10.382 9.6673C10.6471 9.6763 10.8977 9.79021 11.0788 9.98399M20.9908 10.0347C21.174 9.84308 21.4258 9.73209 21.6908 9.72609C21.9558 9.72009 22.2124 9.81957 22.4041 10.0027C24.0001 11.5293 25.0001 13.6387 25.0001 15.976C25.0001 18.3427 23.9774 20.4733 22.3468 22.004C22.2516 22.0965 22.1389 22.1691 22.0154 22.2176C21.8918 22.2661 21.7599 22.2895 21.6272 22.2864C21.4945 22.2834 21.3637 22.254 21.2425 22.1999C21.1213 22.1459 21.0121 22.0682 20.9212 21.9715C20.8303 21.8747 20.7596 21.7609 20.7132 21.6366C20.6667 21.5122 20.6455 21.3799 20.6508 21.2473C20.656 21.1147 20.6876 20.9844 20.7437 20.8641C20.7997 20.7438 20.8792 20.6359 20.9774 20.5467C22.2374 19.364 23.0001 17.7467 23.0001 15.976C23.0001 14.2253 22.2548 12.6267 21.0214 11.448C20.83 11.2646 20.7193 11.0127 20.7135 10.7477C20.7078 10.4826 20.8075 10.2262 20.9908 10.0347Z" fill="white"/>
<path d="M18.2079 13.9347C19.4026 14.812 19.9999 15.2507 19.9999 16.0014C19.9999 16.7507 19.4026 17.188 18.2079 18.0654C17.8963 18.296 17.577 18.5161 17.2506 18.7253C16.9879 18.892 16.6893 19.064 16.3799 19.2334C15.1879 19.8867 14.5933 20.212 14.0586 19.8507C13.5239 19.4893 13.4759 18.7333 13.3786 17.2227C13.3519 16.796 13.3333 16.376 13.3333 16C13.3333 15.624 13.3506 15.2054 13.3786 14.7774C13.4746 13.2667 13.5239 12.5107 14.0586 12.1507C14.5919 11.7894 15.1879 12.1147 16.3786 12.7667C16.6893 12.936 16.9879 13.108 17.2506 13.2747C17.5519 13.4654 17.8786 13.6934 18.2079 13.9347Z" fill="white"/>
</g>
</svg>
