<svg width="26" height="26" viewBox="0 0 26 26" fill="none" xmlns="http://www.w3.org/2000/svg">
<path d="M18.7403 9.09308V8.55001C18.7403 6.10471 15.0519 4.26001 10.1603 4.26001C5.26875 4.26001 1.58032 6.10471 1.58032 8.55001V12.45C1.58032 14.4868 4.1397 16.1053 7.82032 16.5899V17.13C7.82032 19.5753 11.5087 21.42 16.4003 21.42C21.2919 21.42 24.9803 19.5753 24.9803 17.13V13.23C24.9803 11.2118 22.5019 9.59131 18.7403 9.09308ZM23.4203 13.23C23.4203 14.519 20.4183 15.96 16.4003 15.96C16.0366 15.96 15.6759 15.9473 15.32 15.9239C17.4231 15.1576 18.7403 13.9125 18.7403 12.45V10.6697C21.6526 11.1035 23.4203 12.2813 23.4203 13.23ZM7.82032 15.0094V12.6899C8.59621 12.7909 9.37788 12.841 10.1603 12.84C10.9428 12.841 11.7244 12.7909 12.5003 12.6899V15.0094C11.7256 15.1238 10.9435 15.1809 10.1603 15.18C9.37718 15.1809 8.59505 15.1238 7.82032 15.0094ZM17.1803 11.0782V12.45C17.1803 13.268 15.9703 14.1465 14.0603 14.6798V12.4013C15.319 12.0961 16.3847 11.6417 17.1803 11.0782ZM10.1603 5.82001C14.1783 5.82001 17.1803 7.26106 17.1803 8.55001C17.1803 9.83896 14.1783 11.28 10.1603 11.28C6.14235 11.28 3.14032 9.83896 3.14032 8.55001C3.14032 7.26106 6.14235 5.82001 10.1603 5.82001ZM3.14032 12.45V11.0782C3.93592 11.6417 5.0016 12.0961 6.26032 12.4013V14.6798C4.3503 14.1465 3.14032 13.268 3.14032 12.45ZM9.38032 17.13V16.7234C9.63675 16.7332 9.8961 16.74 10.1603 16.74C10.5386 16.74 10.9081 16.7273 11.2708 16.7059C11.6738 16.8501 12.0842 16.9725 12.5003 17.0725V19.3598C10.5903 18.8265 9.38032 17.948 9.38032 17.13ZM14.0603 19.6894V17.364C14.836 17.4683 15.6177 17.5204 16.4003 17.52C17.1828 17.521 17.9644 17.4709 18.7403 17.3699V19.6894C17.1886 19.9168 15.612 19.9168 14.0603 19.6894ZM20.3003 19.3598V17.0813C21.559 16.7761 22.6247 16.3217 23.4203 15.7582V17.13C23.4203 17.948 22.2103 18.8265 20.3003 19.3598Z" fill="#FFAF27"/>
</svg>
